<svg width="117" height="32" viewBox="0 0 117 32" fill="none" xmlns="http://www.w3.org/2000/svg">
<path d="M6.12813 25.32C5.57346 25.32 5.07213 25.288 4.62413 25.224C4.19746 25.16 3.79213 25.064 3.40813 24.936C3.02413 24.808 2.66146 24.6373 2.32013 24.424C2.00013 24.2107 1.70146 23.9653 1.42413 23.688C1.16813 23.3893 0.96546 23.0267 0.816127 22.6C0.688127 22.1733 0.666793 21.6293 0.752127 20.968C0.880127 19.7093 1.13613 18.472 1.52013 17.256C1.92546 16.04 2.36279 14.824 2.83213 13.608C3.32279 12.3707 3.77079 11.1227 4.17613 9.864C4.60279 8.584 4.91213 7.272 5.10413 5.928H7.85613L7.56813 6.504C7.93079 6.73867 8.18679 7.10133 8.33613 7.592C8.48546 8.08267 8.49613 8.70133 8.36813 9.448C8.19746 10.4507 7.94146 11.432 7.60013 12.392C7.25879 13.352 6.89613 14.3227 6.51213 15.304C6.12813 16.264 5.78679 17.224 5.48813 18.184C5.21079 19.1227 5.01879 20.072 4.91213 21.032C5.08279 21.1173 5.24279 21.192 5.39213 21.256C5.54146 21.2987 5.71213 21.3307 5.90413 21.352C6.09613 21.3733 6.30946 21.384 6.54413 21.384C7.39746 21.384 8.18679 21.288 8.91213 21.096C9.63746 20.8827 10.2455 20.5733 10.7361 20.168C11.2481 19.7413 11.5895 19.1973 11.7601 18.536L11.8241 18.248C11.9735 17.6507 11.9521 17.128 11.7601 16.68C11.5895 16.232 11.2161 15.848 10.6401 15.528C10.0855 15.1867 9.32813 14.8987 8.36813 14.664H7.47213V14.216L14.1281 14.28V15.048C14.8535 15.4107 15.3975 15.9653 15.7601 16.712C16.1228 17.4373 16.1975 18.1947 15.9841 18.984L15.9521 19.144C15.6108 20.5307 14.9495 21.6827 13.9681 22.6C13.0081 23.5173 11.8455 24.2 10.4801 24.648C9.11479 25.096 7.66413 25.32 6.12813 25.32ZM3.98413 2.6C5.37079 2.38667 6.68279 2.22667 7.92013 2.12C9.17879 2.01333 10.4481 1.96 11.7281 1.96C13.3068 1.96 14.5975 2.184 15.6001 2.632C16.6241 3.08 17.4028 3.66667 17.9361 4.392C18.4908 5.11733 18.8321 5.88533 18.9601 6.696C19.0881 7.48533 19.0561 8.232 18.8641 8.936L18.8001 9.192C18.5015 10.2587 18.0215 11.2187 17.3601 12.072C16.7201 12.9253 15.9415 13.6613 15.0241 14.28C14.1281 14.8773 13.1255 15.3467 12.0161 15.688C10.9068 16.0293 9.74413 16.2 8.52813 16.2C8.01613 16.2 7.63213 16.1253 7.37613 15.976C7.12013 15.8053 6.88546 15.56 6.67213 15.24L5.61613 15.432L6.73613 12.616C7.03479 12.744 7.29079 12.84 7.50413 12.904C7.71746 12.968 8.08013 13 8.59213 13C9.57346 13 10.4588 12.8613 11.2481 12.584C12.0375 12.3067 12.6988 11.8907 13.2321 11.336C13.7868 10.7813 14.1708 10.088 14.3841 9.256L14.4801 8.872C14.6081 8.44533 14.6828 8.04 14.7041 7.656C14.7255 7.272 14.7148 6.93067 14.6721 6.632C14.2455 6.44 13.7548 6.312 13.2001 6.248C12.6668 6.184 12.0161 6.152 11.2481 6.152C9.94679 6.152 8.80546 6.20533 7.82413 6.312C6.84279 6.41866 6.03213 6.52533 5.39213 6.632C4.77346 6.73867 4.34679 6.792 4.11213 6.792C3.57879 6.792 3.25879 6.58933 3.15213 6.184C3.04546 5.75733 3.08813 5.16 3.28013 4.392C3.38679 3.96533 3.49346 3.624 3.60013 3.368C3.70679 3.112 3.83479 2.856 3.98413 2.6ZM28.2276 4.136C28.3343 3.60267 28.3876 3.048 28.3876 2.472C28.409 1.896 28.3343 1.40533 28.1636 0.999998C28.249 0.957332 28.345 0.925332 28.4516 0.903999C28.5583 0.882666 28.665 0.861333 28.7716 0.839998C28.8783 0.818665 28.985 0.807999 29.0916 0.807999C29.2196 0.786666 29.337 0.775999 29.4436 0.775999C29.5716 0.754666 29.6996 0.743999 29.8276 0.743999C30.5316 0.743999 31.1396 0.903999 31.6516 1.224C32.1636 1.544 32.505 2.088 32.6756 2.856C32.8676 3.624 32.793 4.68 32.4516 6.024C32.217 6.96267 31.9396 7.85867 31.6196 8.712C31.2996 9.544 30.9583 10.3653 30.5956 11.176C30.233 11.9653 29.8703 12.7653 29.5076 13.576C29.1663 14.3867 28.8356 15.2293 28.5156 16.104C28.217 16.9573 27.9503 17.864 27.7156 18.824C27.6303 19.2293 27.5663 19.6133 27.5236 19.976C27.481 20.3387 27.4703 20.7333 27.4916 21.16C27.5983 21.2027 27.7263 21.2453 27.8756 21.288C28.025 21.3093 28.185 21.32 28.3556 21.32C28.569 21.32 28.7716 21.3093 28.9636 21.288C29.177 21.2453 29.3796 21.1813 29.5716 21.096C29.7636 21.0107 29.945 20.904 30.1156 20.776C30.2863 20.648 30.4676 20.5093 30.6596 20.36H30.8516C30.873 20.6587 30.873 21 30.8516 21.384C30.8303 21.7467 30.7556 22.216 30.6276 22.792C30.521 23.1973 30.393 23.5387 30.2436 23.816C30.0943 24.0933 29.9023 24.3387 29.6676 24.552C29.5396 24.68 29.401 24.7973 29.2516 24.904C29.1023 24.9893 28.9103 25.064 28.6756 25.128C28.4623 25.192 28.217 25.2453 27.9396 25.288C27.6836 25.3307 27.3956 25.352 27.0756 25.352C26.2223 25.352 25.5076 25.1813 24.9316 24.84C24.377 24.4773 23.9503 23.9973 23.6516 23.4C23.353 22.7813 23.161 22.088 23.0756 21.32C23.0116 20.5307 23.065 19.7093 23.2356 18.856C23.4703 17.4053 23.7903 16.072 24.1956 14.856C24.6223 13.6187 25.081 12.4453 25.5716 11.336C26.0623 10.2053 26.5423 9.064 27.0116 7.912C27.481 6.73867 27.8863 5.48 28.2276 4.136ZM48.0871 7.4C49.1751 7.4 50.1458 7.656 50.9991 8.168C51.8525 8.65867 52.5458 9.352 53.0791 10.248C53.6338 11.144 53.9858 12.1893 54.1351 13.384C54.3058 14.5787 54.2418 15.8693 53.9431 17.256L53.8471 17.736C53.4631 19.4213 52.8658 20.8293 52.0551 21.96C51.2658 23.0907 50.2525 23.944 49.0151 24.52C47.7778 25.096 46.2845 25.384 44.5351 25.384C43.2765 25.384 42.1671 25.16 41.2071 24.712C40.2471 24.2427 39.4791 23.6133 38.9031 22.824C38.3271 22.0133 37.9645 21.0853 37.8151 20.04C37.6658 18.9733 37.7511 17.8213 38.0711 16.584L38.1991 16.072C38.6685 14.3013 39.3725 12.7653 40.3111 11.464C41.2498 10.1627 42.3805 9.16 43.7031 8.456C45.0258 7.752 46.4871 7.4 48.0871 7.4ZM48.0551 11.496C47.2658 11.496 46.5191 11.6987 45.8151 12.104C45.1325 12.5093 44.5138 13.128 43.9591 13.96C43.4045 14.792 42.9458 15.88 42.5831 17.224L42.4871 17.48C42.2738 18.312 42.1458 19.0587 42.1031 19.72C42.0818 20.3813 42.1778 20.936 42.3911 21.384C42.6898 21.512 42.9778 21.608 43.2551 21.672C43.5538 21.7147 43.8738 21.736 44.2151 21.736C45.2391 21.736 46.1351 21.576 46.9031 21.256C47.6711 20.9147 48.3111 20.424 48.8231 19.784C49.3565 19.1227 49.7405 18.312 49.9751 17.352L50.0391 17.064C50.3165 15.9547 50.4658 14.9627 50.4871 14.088C50.5298 13.2133 50.4445 12.456 50.2311 11.816C49.9538 11.688 49.6445 11.6027 49.3031 11.56C48.9618 11.5173 48.5458 11.496 48.0551 11.496ZM68.5866 7.4C69.312 7.4 69.952 7.53867 70.5066 7.816C71.0613 8.09333 71.5413 8.44533 71.9466 8.872C72.352 9.29867 72.672 9.768 72.9066 10.28H73.9626L73.0666 13.032C72.7466 12.4987 72.2453 12.104 71.5626 11.848C70.9013 11.5707 70.176 11.432 69.3866 11.432C68.64 11.432 67.968 11.6133 67.3706 11.976C66.7946 12.3387 66.2933 12.8613 65.8666 13.544C65.4613 14.2267 65.12 15.0693 64.8426 16.072L64.7146 16.616C64.5653 17.1493 64.448 17.64 64.3626 18.088C64.2773 18.5147 64.224 18.9307 64.2026 19.336C64.352 19.4 64.4906 19.4533 64.6186 19.496C64.7466 19.5173 64.896 19.528 65.0666 19.528C65.8986 19.528 66.752 19.3893 67.6266 19.112C68.5226 18.8133 69.4186 18.2907 70.3146 17.544C71.232 16.776 72.128 15.6773 73.0026 14.248L71.8506 19.784L70.5386 19.752C69.9626 20.6267 69.2906 21.3947 68.5226 22.056C67.7546 22.7173 66.976 23.2293 66.1866 23.592C65.3973 23.9547 64.6613 24.136 63.9786 24.136C63.1466 24.136 62.4426 23.9227 61.8666 23.496C61.2906 23.0693 60.8426 22.4933 60.5226 21.768C60.2026 21.0427 60.0106 20.264 59.9466 19.432C59.904 18.5787 59.9786 17.736 60.1706 16.904L60.3946 16.072C60.7573 14.5787 61.216 13.288 61.7706 12.2C62.3466 11.0907 62.9866 10.184 63.6906 9.48C64.3946 8.776 65.1626 8.25333 65.9946 7.912C66.8266 7.57067 67.6906 7.4 68.5866 7.4ZM74.1546 7.624C74.2826 7.58133 74.4213 7.54933 74.5706 7.528C74.7413 7.50667 74.9226 7.496 75.1146 7.496C75.7546 7.496 76.288 7.656 76.7146 7.976C77.1413 8.296 77.4186 8.73333 77.5466 9.288C77.696 9.84267 77.6426 10.4613 77.3866 11.144C76.8533 12.5093 76.4266 13.8 76.1066 15.016C75.7866 16.232 75.5093 17.3947 75.2746 18.504C75.0613 19.6133 74.8266 20.712 74.5706 21.8C74.3146 22.8667 73.984 23.9333 73.5786 25C73.1093 26.3653 72.352 27.528 71.3066 28.488C70.2826 29.448 69.0666 30.1733 67.6586 30.664C66.272 31.176 64.768 31.432 63.1466 31.432C62.336 31.432 61.664 31.368 61.1306 31.24C60.6186 31.112 60.2133 30.9413 59.9146 30.728C59.6373 30.536 59.4133 30.3333 59.2426 30.12C58.9866 29.7787 58.848 29.3947 58.8266 28.968C58.8053 28.5627 58.8586 28.072 58.9866 27.496C59.0506 27.2827 59.1146 27.08 59.1786 26.888C59.264 26.7173 59.3493 26.5467 59.4346 26.376H59.6266C59.9893 26.568 60.3946 26.7387 60.8426 26.888C61.312 27.0587 61.8453 27.176 62.4426 27.24C63.0613 27.3253 63.7546 27.368 64.5226 27.368C65.056 27.368 65.5893 27.3253 66.1226 27.24C66.6773 27.1547 67.2 27.016 67.6906 26.824C68.032 26.4187 68.3306 26.0027 68.5866 25.576C68.8426 25.1707 69.0773 24.7547 69.2906 24.328C69.504 23.88 69.696 23.3893 69.8666 22.856C70.272 21.6187 70.5813 20.424 70.7946 19.272C71.0293 18.12 71.2853 16.9147 71.5626 15.656C71.84 14.376 72.2346 12.9573 72.7466 11.4C72.8746 11.016 73.0133 10.6213 73.1626 10.216C73.312 9.81067 73.4613 9.39467 73.6106 8.968C73.7813 8.52 73.9626 8.072 74.1546 7.624ZM86.5494 24.968C86.3574 25.032 86.1334 25.0853 85.8774 25.128C85.6427 25.192 85.3974 25.2347 85.1414 25.256C84.8854 25.2987 84.5974 25.32 84.2774 25.32C83.5734 25.32 83.0081 25.192 82.5814 24.936C82.1761 24.6587 81.9201 24.2213 81.8134 23.624C81.7067 23.0267 81.7707 22.216 82.0054 21.192L82.5174 19.112C82.7521 19.0693 82.9867 19.0267 83.2214 18.984C83.4774 18.9413 83.7334 18.9093 83.9894 18.888C84.2667 18.8667 84.5654 18.856 84.8854 18.856C85.5894 18.856 86.1441 18.9947 86.5494 19.272C86.9547 19.528 87.2107 19.9547 87.3174 20.552C87.4241 21.128 87.3494 21.896 87.0934 22.856L86.5494 24.968ZM100.937 24.968C100.745 25.032 100.521 25.0853 100.265 25.128C100.03 25.192 99.7849 25.2347 99.5289 25.256C99.2729 25.2987 98.9849 25.32 98.6649 25.32C97.9609 25.32 97.3955 25.192 96.9689 24.936C96.5635 24.6587 96.3075 24.2213 96.2009 23.624C96.0942 23.0267 96.1582 22.216 96.3929 21.192L96.9049 19.112C97.1395 19.0693 97.3742 19.0267 97.6089 18.984C97.8649 18.9413 98.1209 18.9093 98.3769 18.888C98.6542 18.8667 98.9529 18.856 99.2729 18.856C99.9769 18.856 100.532 18.9947 100.937 19.272C101.342 19.528 101.598 19.9547 101.705 20.552C101.812 21.128 101.737 21.896 101.481 22.856L100.937 24.968ZM115.324 24.968C115.132 25.032 114.908 25.0853 114.652 25.128C114.418 25.192 114.172 25.2347 113.916 25.256C113.66 25.2987 113.372 25.32 113.052 25.32C112.348 25.32 111.783 25.192 111.356 24.936C110.951 24.6587 110.695 24.2213 110.588 23.624C110.482 23.0267 110.546 22.216 110.78 21.192L111.292 19.112C111.527 19.0693 111.762 19.0267 111.996 18.984C112.252 18.9413 112.508 18.9093 112.764 18.888C113.042 18.8667 113.34 18.856 113.66 18.856C114.364 18.856 114.919 18.9947 115.324 19.272C115.73 19.528 115.986 19.9547 116.092 20.552C116.199 21.128 116.124 21.896 115.868 22.856L115.324 24.968Z" fill="#3B82F6"/>
</svg>
