<svg width="38" height="48" viewBox="0 0 38 48" fill="none" xmlns="http://www.w3.org/2000/svg">
<path d="M11.6125 47.64C10.5032 47.64 9.5005 47.576 8.6045 47.448C7.75117 47.32 6.9405 47.128 6.1725 46.872C5.4045 46.616 4.67917 46.2747 3.9965 45.848C3.3565 45.4213 2.75917 44.9307 2.2045 44.376C1.6925 43.7787 1.28717 43.0533 0.9885 42.2C0.7325 41.3467 0.689833 40.2587 0.8605 38.936C1.1165 36.4187 1.6285 33.944 2.3965 31.512C3.20717 29.08 4.08183 26.648 5.0205 24.216C6.00183 21.7413 6.89783 19.2453 7.7085 16.728C8.56183 14.168 9.1805 11.544 9.5645 8.856H15.0685L14.4925 10.008C15.2178 10.4773 15.7298 11.2027 16.0285 12.184C16.3272 13.1653 16.3485 14.4027 16.0925 15.896C15.7512 17.9013 15.2392 19.864 14.5565 21.784C13.8738 23.704 13.1485 25.6453 12.3805 27.608C11.6125 29.528 10.9298 31.448 10.3325 33.368C9.77783 35.2453 9.39383 37.144 9.1805 39.064C9.52183 39.2347 9.84183 39.384 10.1405 39.512C10.4392 39.5973 10.7805 39.6613 11.1645 39.704C11.5485 39.7467 11.9752 39.768 12.4445 39.768C14.1512 39.768 15.7298 39.576 17.1805 39.192C18.6312 38.7653 19.8472 38.1467 20.8285 37.336C21.8525 36.4827 22.5352 35.3947 22.8765 34.072L23.0045 33.496C23.3032 32.3013 23.2605 31.256 22.8765 30.36C22.5352 29.464 21.7885 28.696 20.6365 28.056C19.5272 27.3733 18.0125 26.7973 16.0925 26.328H14.3005V25.432L27.6125 25.56V27.096C29.0632 27.8213 30.1512 28.9307 30.8765 30.424C31.6018 31.8747 31.7512 33.3893 31.3245 34.968L31.2605 35.288C30.5778 38.0613 29.2552 40.3653 27.2925 42.2C25.3725 44.0347 23.0472 45.4 20.3165 46.296C17.5858 47.192 14.6845 47.64 11.6125 47.64ZM7.3245 2.2C10.0978 1.77333 12.7218 1.45333 15.1965 1.24C17.7138 1.02666 20.2525 0.919998 22.8125 0.919998C25.9698 0.919998 28.5512 1.368 30.5565 2.264C32.6045 3.16 34.1618 4.33333 35.2285 5.784C36.3378 7.23466 37.0205 8.77067 37.2765 10.392C37.5325 11.9707 37.4685 13.464 37.0845 14.872L36.9565 15.384C36.3592 17.5173 35.3992 19.4373 34.0765 21.144C32.7965 22.8507 31.2392 24.3227 29.4045 25.56C27.6125 26.7547 25.6072 27.6933 23.3885 28.376C21.1698 29.0587 18.8445 29.4 16.4125 29.4C15.3885 29.4 14.6205 29.2507 14.1085 28.952C13.5965 28.6107 13.1272 28.12 12.7005 27.48L10.5885 27.864L12.8285 22.232C13.4258 22.488 13.9378 22.68 14.3645 22.808C14.7912 22.936 15.5165 23 16.5405 23C18.5032 23 20.2738 22.7227 21.8525 22.168C23.4312 21.6133 24.7538 20.7813 25.8205 19.672C26.9298 18.5627 27.6978 17.176 28.1245 15.512L28.3165 14.744C28.5725 13.8907 28.7218 13.08 28.7645 12.312C28.8072 11.544 28.7858 10.8613 28.7005 10.264C27.8472 9.88 26.8658 9.624 25.7565 9.496C24.6898 9.368 23.3885 9.304 21.8525 9.304C19.2498 9.304 16.9672 9.41066 15.0045 9.624C13.0418 9.83733 11.4205 10.0507 10.1405 10.264C8.90317 10.4773 8.04983 10.584 7.5805 10.584C6.51383 10.584 5.87383 10.1787 5.6605 9.368C5.44717 8.51466 5.5325 7.32 5.9165 5.784C6.12983 4.93066 6.34317 4.248 6.5565 3.736C6.76983 3.224 7.02583 2.712 7.3245 2.2Z" fill="#3B82F6"/>
</svg>
